# xmcd
#
# Track frame offsets:
#	150
#	15397
#	28717
#	40755
#	57382
#	68342
#	84317
#	102137
#	115107
#	130972
#	145655
#	159572
#
# Disc length: 2312 seconds
#
# Revision: 0
# Processed by: cddbd v1.5.2PL0 Copyright (c) Steve Scherf et al.
# Submitted via: dBpowerAMP V4.0
#
DISCID=8d09060c
DTITLE=Katie Trickett - Let Your Heart Run
DYEAR=1997
DGENRE=Country
TTITLE0=But I Do
TTITLE1=One More Chance Again
TTITLE2=I`ll Be Your Angel
TTITLE3=Nothin` Between You And Me
TTITLE4=I`m Sure Of You
TTITLE5=Where Did I Go Right?
TTITLE6=Could`ve Been A Dream
TTITLE7=You`ll Never Know
TTITLE8=You`re On My MInd
TTITLE9=Another Heartache
TTITLE10=You`ll Never Be Alone
TTITLE11=Drivin` Wheel
EXTD=
EXTT0=
EXTT1=
EXTT2=
EXTT3=
EXTT4=
EXTT5=
EXTT6=
EXTT7=
EXTT8=
EXTT9=
EXTT10=
EXTT11=
PLAYORDER=
